PathFileType	4	(X/Y/Z)	Run_300 01
DataRate	CameraRate	NumFrames	NumMarkers	Units	OrigDataRate	OrigDataStartFrame	OrigNumFrames
120	120	7	42	mm	120	403	128
Frame#	Time	LASI			RASI			LPSI			RPSI			RTH1			RTH3			LTH1			LTH2			LTH3			RTB1			RTB2			RTB3			LTB1			LTB2			LTB3			RCAL			RTOE			RMT5			LCAL			LTOE			LMT5			LACR			RACR			CLAV			C7			RUA1			RUA2			RUA3			RLEL			RMEL			LUA1			LUA2			LUA3			LLEL			LMEL			RFAsuperior			RFAradius			RFAulna			LFAsuperior			LFAradius			LFAulna			RTH2		
		X1	Y1	Z1	X2	Y2	Z2	X3	Y3	Z3	X4	Y4	Z4	X5	Y5	Z5	X6	Y6	Z6	X7	Y7	Z7	X8	Y8	Z8	X9	Y9	Z9	X10	Y10	Z10	X11	Y11	Z11	X12	Y12	Z12	X13	Y13	Z13	X14	Y14	Z14	X15	Y15	Z15	X16	Y16	Z16	X17	Y17	Z17	X18	Y18	Z18	X19	Y19	Z19	X20	Y20	Z20	X21	Y21	Z21	X22	Y22	Z22	X23	Y23	Z23	X24	Y24	Z24	X25	Y25	Z25	X26	Y26	Z26	X27	Y27	Z27	X28	Y28	Z28	X29	Y29	Z29	X30	Y30	Z30	X31	Y31	Z31	X32	Y32	Z32	X33	Y33	Z33	X34	Y34	Z34	X35	Y35	Z35	X36	Y36	Z36	X37	Y37	Z37	X38	Y38	Z38	X39	Y39	Z39	X40	Y40	Z40	X41	Y41	Z41	X42	Y42	Z42	

403	  3.358333	1125.510505	1046.682159	-418.237621	1128.955351	1031.367509	-186.199753	965.153985	1094.644524	-351.410766	968.313395	1091.697728	-252.650991	1023.970814	887.592250	-131.155830	939.689747	667.571174	-184.193230	1105.596823	893.388612	-482.345004	1214.785978	837.896680	-474.907219	1205.593211	695.613291	-453.603582	856.619014	439.977954	-246.665583	787.405132	430.441556	-177.456467	720.040998	321.602762	-235.711841	1322.736041	482.986302	-406.776071	1273.697762	385.648338	-450.466052	1290.684337	287.179258	-385.521688	548.016332	324.729158	-233.154169	633.713191	140.688932	-290.385252	606.024667	119.530109	-187.833502	1163.667471	175.038206	-364.914466	1366.268871	136.275807	-333.334894	1349.570453	 87.227162	-430.436353	1060.996866	1535.740642	-473.828354	1140.957799	1519.532496	-129.703855	1176.562816	1477.143646	-299.921254	1062.929648	1557.616499	-302.198305	1123.040550	1441.158085	-77.974005	1127.911011	1352.007730	-85.824813	1041.651355	1355.750315	-56.653612	1022.738930	1241.249828	-25.314193	989.252561	1238.065716	-90.479259	994.572499	1507.953957	-511.677191	937.074490	1475.961170	-461.284442	930.981302	1426.291604	-533.690475	812.649573	1377.240673	-533.670187	812.795148	1373.611000	-460.269804	1118.503047	1232.063059	-45.929614	1264.288623	1183.764985	-137.622101	1243.595108	1119.479821	-129.984663	869.546123	1323.715926	-559.495132	1013.403276	1187.120602	-539.422365	958.896942	1148.108521	-547.938295	1032.687314	728.983790	-172.358701	
404	  3.366667	1125.907800	1046.903713	-417.683093	1128.985969	1032.705067	-185.602895	965.305205	1094.566171	-351.370632	968.372929	1092.462584	-252.371964	1024.462512	888.636684	-132.028536	944.788446	666.416147	-185.842879	1100.693578	888.840592	-481.374811	1211.121203	832.986454	-475.806870	1199.769959	691.539037	-453.506844	855.710986	441.622006	-248.907853	787.114624	435.060962	-179.023873	713.628436	330.033532	-236.120397	1321.699910	479.844434	-405.283788	1279.930604	380.186678	-450.287671	1302.575133	282.917218	-385.653050	540.574510	339.635408	-231.380407	621.510748	154.021007	-289.876669	594.462572	133.151580	-187.000856	1182.567892	163.729163	-366.539392	1386.645038	136.851784	-333.163126	1373.366229	 85.070942	-430.044411	1062.385166	1535.036771	-476.104635	1141.404956	1520.451941	-131.307967	1177.087130	1477.548997	-301.315431	1063.674695	1558.248810	-304.034091	1122.622877	1442.552145	-79.326527	1127.244372	1353.789199	-86.171718	1040.770967	1357.623875	-57.983781	1021.344364	1243.649833	-25.977287	987.279636	1240.746454	-91.141464	995.922168	1507.207632	-514.118249	938.231036	1475.466492	-463.216761	932.080510	1425.788612	-535.319205	813.612532	1376.905763	-534.864430	813.835683	1373.128359	-461.565723	1117.055291	1232.284583	-46.296544	1262.023158	1181.230833	-137.839244	1240.233190	1117.463085	-128.989969	870.897820	1323.915660	-560.679004	1015.952018	1188.578556	-540.607899	961.907143	1148.862847	-548.919814	1037.133771	728.702697	-174.834874	
405	  3.375000	1126.292319	1046.777132	-417.308668	1129.000308	1033.287537	-185.301371	965.283715	1093.150550	-351.267158	968.121803	1091.953321	-252.078380	1026.388717	887.994459	-132.899093	951.640700	663.834129	-187.334618	1096.223871	884.408588	-480.516871	1208.928749	827.837302	-476.404686	1194.517312	686.931522	-453.571968	856.030586	442.404462	-250.658221	787.381823	439.824261	-180.271368	708.261297	338.413008	-236.315537	1319.651790	475.833118	-403.801572	1283.853986	375.116152	-450.006220	1311.987158	279.181548	-385.695076	534.318085	354.873826	-230.444198	611.189932	167.715328	-289.003911	584.170424	147.473594	-185.908816	1198.296336	154.482003	-367.579139	1403.301240	136.891814	-334.024595	1392.301514	 84.046736	-430.061004	1063.876803	1533.510448	-478.475408	1141.916306	1520.545593	-132.884343	1177.597208	1477.151365	-302.714190	1064.394187	1558.103918	-306.011360	1122.257746	1443.012644	-80.750321	1126.294946	1354.482613	-86.784425	1039.633900	1358.817071	-59.403816	1019.421124	1245.408048	-26.736188	984.726488	1242.781013	-91.884469	997.405345	1505.336482	-516.897078	939.558647	1473.836110	-465.461983	933.535157	1423.966899	-537.226053	815.095447	1375.098241	-536.623161	815.186377	1371.255237	-463.329782	1115.057992	1231.380104	-46.559915	1259.013986	1176.646413	-137.465044	1235.650043	1113.629500	-127.564388	872.915978	1322.700501	-562.150409	1019.143938	1188.701864	-541.668191	965.546274	1148.266983	-549.824761	1043.118408	727.316800	-178.172618	
406	  3.383333	1126.558747	1046.169863	-417.070406	1129.092679	1033.091358	-185.264659	965.016033	1090.608829	-351.004039	967.590877	1090.221848	-251.770824	1029.983215	885.418579	-133.718550	959.791947	660.082474	-188.765190	1092.862020	880.587733	-480.008868	1207.834180	822.366236	-476.810484	1189.537742	681.707169	-453.473344	857.663372	442.425945	-251.944232	788.446921	444.697547	-181.441930	704.266994	346.608207	-236.392065	1317.071676	471.255730	-402.345352	1285.794704	370.464966	-449.674447	1318.585265	275.832104	-385.594084	529.911268	370.444267	-230.344960	602.706969	181.358385	-287.713387	575.059294	162.266541	-184.552117	1209.993999	147.164695	-368.100234	1415.616371	135.666583	-335.899117	1405.733934	 84.062521	-430.572635	1065.453088	1531.148424	-480.899815	1142.478790	1519.782228	-134.461674	1178.075345	1475.876528	-304.107470	1065.109761	1557.174446	-308.114213	1122.001892	1442.579401	-82.225772	1125.153885	1354.134342	-87.638806	1038.318682	1359.415017	-60.902081	1016.967025	1246.550248	-27.545939	981.758350	1244.139587	-92.744673	999.003526	1502.410581	-519.920126	941.057786	1471.098055	-467.992768	935.320652	1420.872108	-539.374985	817.073835	1371.795428	-538.922313	816.859069	1367.986756	-465.584766	1112.428484	1229.502406	-46.726151	1255.210781	1170.166954	-136.518994	1229.823197	1108.138075	-125.690868	875.568368	1320.032776	-563.906152	1022.948951	1187.492539	-542.611016	969.821330	1146.308028	-550.707792	1050.088131	725.030166	-182.154579	
407	  3.391667	1126.625419	1044.926191	-416.907285	1129.320260	1032.128206	-185.303683	964.408892	1087.213314	-350.528730	966.900893	1087.414156	-251.420877	1034.976344	881.118764	-134.531409	968.689441	655.415824	-190.185737	1090.998531	877.570403	-480.256669	1206.940345	816.309073	-477.036591	1184.507762	675.826319	-452.999546	860.638554	441.759294	-252.796310	790.650789	449.453069	-182.819326	701.907519	354.492557	-236.468183	1314.335356	466.561681	-401.057833	1286.093044	366.191658	-449.287462	1322.121232	272.621162	-385.307728	527.828043	386.236230	-231.015532	595.863699	194.676817	-286.031483	567.114909	177.380134	-182.901008	1217.108785	141.293377	-368.174345	1423.122038	132.980219	-337.883779	1413.586909	 84.335743	-431.217438	1067.108610	1527.943137	-483.353750	1143.044546	1518.124334	-136.047938	1178.503153	1473.670183	-305.479151	1065.843175	1555.485100	-310.303183	1121.806364	1441.281476	-83.700975	1123.814314	1352.790636	-88.705480	1036.880632	1359.417614	-62.397311	1013.983504	1247.074146	-28.366257	978.549079	1244.794959	-93.744377	1000.710283	1498.456289	-523.101564	942.692241	1467.280282	-470.793523	937.424059	1416.546476	-541.748179	819.503777	1367.004840	-541.699627	818.873359	1363.313616	-468.335982	1109.087812	1226.781358	-46.789756	1250.604181	1161.963382	-135.032602	1222.789596	1101.161795	-123.375305	878.801371	1315.887540	-565.950820	1027.323185	1184.985668	-543.476147	974.742896	1143.002318	-551.633800	1057.511365	722.058396	-186.247955	
408	  3.400000	1126.457077	1042.990198	-416.773083	1129.662956	1030.404130	-185.142094	963.444516	1083.192372	-349.863478	966.239151	1083.686598	-250.960850	1040.712408	875.682183	-135.402300	977.781005	650.060940	-191.593635	1090.577757	875.273940	-481.665123	1205.415635	809.489979	-477.021582	1179.459179	669.486977	-452.219283	864.922680	440.475166	-253.271302	794.288993	453.780178	-184.504869	701.370625	361.957428	-236.653599	1311.554918	462.099507	-400.183784	1284.878471	362.111343	-448.809779	1322.579520	269.206388	-384.792080	528.351175	402.044060	-232.363970	590.421239	207.523842	-284.050782	560.460591	192.731831	-180.940530	1219.601474	136.230250	-367.857644	1425.708660	128.832899	-338.562201	1416.302240	 83.405017	-431.272908	1068.836862	1523.901305	-485.805753	1143.551396	1515.565856	-137.610608	1178.869630	1470.518168	-306.808457	1066.591505	1553.056219	-312.534565	1121.553459	1439.148345	-85.111251	1122.186447	1350.461735	-89.987019	1035.333846	1358.765875	-63.780842	1010.488596	1246.966278	-29.167575	975.199867	1244.795549	-94.824672	1002.525042	1493.478002	-526.379746	944.403668	1462.396247	-473.857257	939.838072	1411.010643	-544.344674	822.343130	1360.741146	-544.912441	821.220700	1357.246791	-471.557926	1104.981653	1223.318972	-46.745148	1245.179403	1152.228277	-132.990042	1214.605285	1092.890231	-120.692311	882.546500	1310.257250	-568.287700	1032.227312	1181.243363	-544.313450	980.299039	1138.398597	-552.606875	1064.952403	718.561854	-189.780239	
409	  3.408333	1126.072050	1040.419808	-416.669570	1130.029309	1027.876279	-184.603674	962.212317	1078.675903	-349.094320	965.752183	1079.139801	-250.334949	1046.477179	869.766301	-136.333861	986.632804	644.187087	-192.940328	1091.137011	873.336475	-484.297468	1203.076121	802.097961	-476.769414	1174.893136	663.163075	-451.505418	870.461934	438.644331	-253.468027	799.514554	457.398968	-186.381879	702.761498	368.908927	-237.015783	1308.562824	457.885271	-399.837274	1282.121594	357.896201	-448.218570	1320.262010	265.202259	-384.034666	531.589819	417.593349	-234.318212	586.234827	219.825645	-281.876972	555.287261	208.235258	-178.709891	1217.913212	131.488558	-367.256855	1423.703785	122.902374	-336.904918	1414.576488	 79.720226	-430.090315	1070.609869	1519.038754	-488.200453	1143.933046	1512.145704	-139.083820	1179.174904	1466.452550	-308.066625	1067.321561	1549.879998	-314.765771	1121.104358	1436.208166	-86.403476	1120.154308	1347.134204	-91.500590	1033.645569	1357.381444	-64.982315	1006.521824	1246.214572	-29.938920	971.713023	1244.266807	-95.846111	1004.450716	1487.477000	-529.721404	946.127289	1456.441205	-477.183981	942.552158	1404.261137	-547.155507	825.568180	1353.024830	-548.534945	823.850212	1349.827811	-475.189548	1100.108308	1219.185471	-46.597181	1238.871713	1141.178794	-130.315778	1205.300428	1083.517827	-117.735238	886.733307	1303.156863	-570.909988	1037.635237	1176.340080	-545.137883	986.445983	1132.568638	-553.546275	1072.083372	714.612244	-192.194737	
